<svg width="300" height="300" viewBox="0 0 300 300" fill="none" xmlns="http://www.w3.org/2000/svg">
<path d="M150 0C232.843 0 300 67.1573 300 150C300 232.843 232.843 300 150 300C67.1573 300 0 232.843 0 150C0 67.1573 67.1573 0 150 0ZM150 274.5C218.759 274.5 274.5 218.759 274.5 150C274.5 81.2405 218.759 25.5 150 25.5C81.2405 25.5 25.5 81.2405 25.5 150C25.5 218.759 81.2405 274.5 150 274.5Z" fill="#ECECEA"/>
<path d="M150 0C179.667 0 208.668 8.79735 233.336 25.2796C258.003 41.7618 277.229 65.1886 288.582 92.5975C299.935 120.006 302.906 150.166 297.118 179.264C291.33 208.361 277.044 235.088 256.066 256.066C235.088 277.044 208.361 291.33 179.264 297.118C150.166 302.906 120.006 299.935 92.5975 288.582C65.1886 277.229 41.7618 258.003 25.2796 233.336C8.79735 208.668 -3.53778e-07 179.667 0 150L25.5 150C25.5 174.624 32.8018 198.695 46.482 219.168C60.1623 239.642 79.6065 255.6 102.356 265.023C125.105 274.446 150.138 276.912 174.289 272.108C198.439 267.304 220.623 255.446 238.035 238.035C255.446 220.623 267.304 198.439 272.108 174.289C276.912 150.138 274.446 125.105 265.023 102.356C255.6 79.6065 239.642 60.1623 219.168 46.482C198.695 32.8018 174.624 25.5 150 25.5V0Z" fill="#0084C9"/>
</svg>
