<svg width="478" height="481" viewBox="0 0 478 481" fill="none" xmlns="http://www.w3.org/2000/svg">
<path d="M234.56 302.84C236.031 304.228 237.977 305.001 240 305.001C242.023 305.001 243.969 304.228 245.44 302.84L316.56 236.84C330.24 224.084 341.154 208.655 348.626 191.509C356.099 174.362 359.97 155.864 360 137.16V57C359.999 55.4297 359.535 53.8945 358.668 52.5857C357.8 51.2769 356.566 50.2525 355.12 49.64L243.12 1.64003C242.137 1.20481 241.075 0.97998 240 0.97998C238.925 0.97998 237.863 1.20481 236.88 1.64003L124.88 49.64C123.434 50.2525 122.2 51.2769 121.332 52.5857C120.465 53.8945 120.001 55.4297 120 57V137.16C120.03 155.864 123.901 174.362 131.374 191.509C138.846 208.655 149.76 224.084 163.44 236.84L234.56 302.84ZM136 62.28L240 17.72L344 62.28V137.16C343.981 153.659 340.569 169.978 333.977 185.102C327.385 200.227 317.753 213.835 305.68 225.08L240 286.12L174.32 225.08C162.247 213.835 152.615 200.227 146.023 185.102C139.431 169.978 136.019 153.659 136 137.16V62.28Z" fill="white"/>
<path d="M476.64 341L460.64 313.32C455.334 304.136 446.603 297.429 436.362 294.67C426.12 291.911 415.202 293.324 406 298.6L288 366.76V361C288 350.391 283.786 340.217 276.284 332.716C268.783 325.214 258.609 321 248 321H104C103.132 321.015 102.271 321.15 101.44 321.4L54.72 337H8C5.87827 337 3.84344 337.843 2.34315 339.343C0.842854 340.843 0 342.878 0 345V473C0 475.122 0.842854 477.156 2.34315 478.657C3.84344 480.157 5.87827 481 8 481H264C265.499 481.01 266.969 480.594 268.24 479.8L473.92 351.8C475.688 350.706 476.96 348.967 477.468 346.951C477.976 344.935 477.679 342.801 476.64 341ZM48 465H16V353H48V465ZM261.68 465H64V350.76L105.28 337H248C254.359 337.019 260.453 339.553 264.95 344.05C269.446 348.547 271.981 354.64 272 361V385H144V401H280C282.122 401 284.157 400.157 285.657 398.657C287.157 397.156 288 395.122 288 393V385.24L414 312.52C416.731 310.934 419.749 309.905 422.88 309.493C426.011 309.082 429.192 309.294 432.24 310.12C435.281 310.92 438.131 312.324 440.618 314.248C443.106 316.172 445.181 318.577 446.72 321.32L458.88 342.28L261.68 465Z" fill="white"/>
<path d="M232 185C234.122 185 236.156 184.157 237.656 182.656L293.656 126.656L282.344 115.344L232 165.688L205.656 139.344L194.344 150.656L226.344 182.656C227.844 184.157 229.878 185 232 185Z" fill="white"/>
</svg>
