<svg width="496" height="497" viewBox="0 0 496 497" fill="none" xmlns="http://www.w3.org/2000/svg">
<path d="M480 32.312H426.424L417.232 26.176C391.84 9.25601 362.296 0.312012 331.784 0.312012H272C263.176 0.312012 256 7.48801 256 16.312C256 22.168 257.696 27.592 260.448 32.32L216 32.312C202.768 32.312 192 43.08 192 56.312C192 59.472 192.648 62.472 193.76 65.24C189.296 66.448 185.36 68.88 182.328 72.208L174.24 64.12L162.584 75.768C158.176 80.184 151.576 81.464 145.456 78.904C139.712 76.528 136 70.976 136 64.752V48.312H88V64.752C88 70.976 84.288 76.536 78.216 79.032C72.416 81.48 65.816 80.184 61.4 75.768L49.76 64.12L15.808 98.072L27.448 109.72C31.856 114.136 33.144 120.736 30.592 126.848C28.216 132.592 22.664 136.312 16.44 136.312H0V184.312H16.44C22.664 184.312 28.224 188.032 30.728 194.088C33.152 199.896 31.864 206.496 27.456 210.912L15.808 222.552L49.76 256.504L61.416 244.856C65.824 240.44 72.416 239.16 78.536 241.704C84.28 244.096 88 249.648 88 255.872V272.312H96V288.52C96 303.832 97.704 319.088 100.872 334C93.24 337.448 85.832 341.472 78.776 346.176L69.576 352.312H16C7.176 352.312 0 359.488 0 368.312V464.312C0 473.136 7.176 480.312 16 480.312H64C70.472 480.312 76.032 476.432 78.552 470.888C103.584 487.336 133.144 496.312 163.224 496.312H232C235.296 496.312 238.44 495.64 241.304 494.432C242.688 494.92 244.064 495.432 245.464 495.896L248 496.744L250.536 495.904C288.328 483.312 320.784 461.072 345.768 432.568C347.328 432.728 348.912 433.048 350.536 433.72C356.28 436.096 360 441.648 360 447.872V464.312H408V447.872C408 441.648 411.72 436.088 417.776 433.584C423.584 431.168 430.176 432.44 434.592 436.856L446.24 448.504L480.192 414.552L468.552 402.904C464.144 398.488 462.856 391.888 465.408 385.776C467.784 380.032 473.336 376.312 479.56 376.312H496V328.312H479.56C473.336 328.312 467.776 324.592 465.272 318.536C462.848 312.728 464.136 306.128 468.544 301.712L480.184 290.064L446.232 256.112L434.576 267.76C430.168 272.176 423.576 273.456 417.448 270.896C411.712 268.528 408 262.976 408 256.752V240.312H400V160.784C406.024 157.856 411.848 154.544 417.44 150.864C419.952 156.416 425.52 160.312 432 160.312H480C488.824 160.312 496 153.136 496 144.312V48.312C496 39.488 488.824 32.312 480 32.312ZM216 48.312L288 48.32V48.312H313.36C318.184 48.312 322.544 50.544 325.528 54.256C322.04 57.264 318.984 60.664 316.28 64.312H216C211.592 64.312 208 60.728 208 56.312C208 51.896 211.592 48.312 216 48.312ZM265.328 122.248L250.424 112.312H304V128.312H275.488C272.024 126.44 268.616 124.448 265.328 122.248ZM220.512 128.312H216C211.592 128.312 208 124.728 208 120.312C208 115.896 211.592 112.312 216 112.312H245.576L230.68 122.248C227.384 124.448 223.976 126.44 220.512 128.312ZM200 80.312H307.72C305.888 85.424 304.752 90.792 304.312 96.312H200C195.592 96.312 192 92.728 192 88.312C192 83.896 195.592 80.312 200 80.312ZM84.384 226.816C72.56 221.888 59.096 224.528 50.088 233.544L49.76 233.88L38.432 222.552L38.768 222.216C47.776 213.2 50.416 199.736 45.384 187.672C40.528 175.912 29.168 168.312 16.44 168.312H16V152.312H16.44C29.168 152.312 40.528 144.712 45.488 132.696C50.416 120.88 47.776 107.424 38.768 98.408L38.432 98.072L49.76 86.744L50.096 87.08C59.12 96.112 72.584 98.736 84.64 93.696C96.4 88.84 104 77.48 104 64.752V64.312H120V64.752C120 77.48 127.6 88.848 139.608 93.8C151.416 98.744 164.888 96.104 173.904 87.08L174.24 86.744L176.016 88.528C176.112 99.496 183.624 108.64 193.76 111.392C192.648 114.152 192 117.152 192 120.312C192 127.016 194.776 133.072 199.224 137.432C188.312 141.048 176.976 143.208 165.504 143.896C158.408 120.592 136.976 104.312 112 104.312C81.12 104.312 56 129.44 56 160.312C56 185.44 72.472 206.976 96 213.944V235C92.88 231.536 88.96 228.712 84.384 226.816ZM96 134.552V196.84C81.704 190.608 72 176.552 72 160.304C72 138.248 89.944 120.304 112 120.304C128.064 120.304 141.976 129.8 148.304 143.824C142.856 143.44 137.424 142.832 132.032 141.76L96 134.552ZM64 464.312H16V368.312H64V464.312ZM232 480.312H163.224C133.248 480.312 103.88 470.32 80 452.264V364.592L87.648 359.488C110.392 344.328 136.872 336.312 164.216 336.312H208C208 345.136 200.832 352.312 192.032 352.312H192H167.952V368.312H192H192.032H264C268.408 368.312 272 371.896 272 376.312C272 380.728 268.408 384.312 264 384.312H168V400.312H280C284.408 400.312 288 403.896 288 408.312C288 412.728 284.408 416.312 280 416.312H168V432.312H264C268.408 432.312 272 435.896 272 440.312C272 444.728 268.408 448.312 264 448.312H168V464.312H232C236.408 464.312 240 467.896 240 472.312C240 476.728 236.408 480.312 232 480.312ZM144 288.52V191.784C148.608 192.136 153.224 192.312 157.8 192.312C188.224 192.312 215.784 186.08 240 173.88V352.312H219.552C222.304 347.584 224 342.168 224 336.312C224 327.488 216.824 320.312 208 320.312H164.216C158.504 320.312 152.848 320.728 147.224 321.352C145.12 310.568 144 299.56 144 288.52ZM303.896 407.264C303.424 396.672 296.104 387.92 286.24 385.24C287.352 382.472 288 379.472 288 376.312C288 363.08 277.232 352.312 264 352.312H256V173.88C280.216 186.088 307.776 192.312 338.2 192.312C342.776 192.312 347.392 192.136 352 191.784V288.528C352 333.52 334.44 375.816 303.896 407.264ZM255.536 476.904C255.824 475.416 256 473.88 256 472.312C256 469.496 255.424 466.824 254.528 464.312H264C276.752 464.312 287.12 454.28 287.856 441.712C338.088 406.872 368 349.992 368 288.52V173.832L358.992 174.984C352.088 175.864 345.088 176.312 338.2 176.312C305.568 176.312 276.64 168.64 252.208 153.504L248 150.896L243.792 153.504C219.36 168.64 190.432 176.312 157.8 176.312C150.912 176.312 143.92 175.864 137.008 174.984L128 173.832V288.52C128 300.4 129.184 312.24 131.408 323.856C126.184 324.992 121.048 326.456 115.968 328.136C113.384 315.12 112 301.848 112 288.52V154.072L128.904 157.456C138.4 159.352 148.128 160.312 157.8 160.312C186.984 160.312 215.256 151.76 239.552 135.56L248 129.928L256.448 135.56C280.744 151.76 309.008 160.312 338.2 160.312C347.872 160.312 357.6 159.352 367.104 157.456L384 154.072V288.528C384 372.256 332.768 446.552 255.536 476.904ZM398.232 315.032C413.344 320.864 424 335.616 424 352.312C424 374.368 406.056 392.312 384 392.312C380.704 392.312 377.496 391.896 374.368 391.12C386.776 367.768 394.944 342.056 398.232 315.032ZM411.608 285.8C423.416 290.744 436.888 288.104 445.904 279.08L446.24 278.744L457.568 290.072L457.232 290.408C448.224 299.424 445.584 312.888 450.616 324.952C455.472 336.712 466.832 344.312 479.56 344.312H480V360.312H479.56C466.832 360.312 455.472 367.912 450.512 379.928C445.584 391.744 448.224 405.2 457.232 414.216L457.568 414.552L446.24 425.88L445.904 425.544C436.88 416.52 423.416 413.872 411.352 418.928C399.6 423.792 392 435.144 392 447.872V448.312H376V447.872C376 435.28 368.552 424.056 356.744 419C360.04 414.568 363.16 410.016 366.12 405.344C371.848 407.288 377.832 408.312 384 408.312C414.88 408.312 440 383.184 440 352.312C440 327.368 423.056 305.456 399.6 298.584C399.752 295.232 400 291.904 400 288.52V277.616C403.12 281.088 407.04 283.912 411.608 285.8ZM363.968 141.768C349.408 144.672 334.536 144.888 320 142.84V101.312C320 88.32 325.472 76.152 334.832 67.488C342.568 75.56 353.288 80.312 364.904 80.312H368V64.312H364.904C355.064 64.312 346.232 58.84 341.768 49.896C336.36 39.056 325.48 32.312 313.36 32.312H287.968C279.168 32.312 272 25.136 272 16.312H331.784C359.128 16.312 385.608 24.328 408.352 39.488L416 44.592V132.312C410.912 136.16 405.568 139.648 400 142.76V134.552L363.968 141.768ZM480 144.312H432V48.312H480V144.312ZM382.056 96.552L385.936 112.064L378.48 113.928C365.784 117.104 355.728 126.416 351.584 138.832L336.408 133.768C342.288 116.136 356.568 102.912 374.6 98.408L382.056 96.552ZM16 320.312H0V304.312H16V320.312ZM48 304.312V320.312H32V304.312H48ZM80 320.312H64V304.312H80V320.312ZM416 192.312H432V208.312H416V192.312ZM448 208.312V192.312H464V208.312H448ZM480 192.312H496V208.312H480V192.312Z" fill="url(#paint0_linear)"/>
<defs>
<linearGradient id="paint0_linear" x1="248" y1="496.744" x2="248" y2="0.312012" gradientUnits="userSpaceOnUse">
<stop stop-color="#0083CB"/>
<stop offset="1" stop-color="#03587F"/>
</linearGradient>
</defs>
</svg>
