<svg width="496" height="500" viewBox="0 0 496 500" fill="none" xmlns="http://www.w3.org/2000/svg">
<path d="M169.544 355.216L155.296 362.48C152.928 357.848 150.896 352.984 149.256 348.024L164.44 342.992C165.832 347.184 167.544 351.304 169.544 355.216ZM321.336 266.656C330.928 281.088 336 297.912 336 315.312C336 363.832 296.52 403.312 248 403.312C219.752 403.312 193.032 389.6 176.504 366.64L163.52 375.984C183.04 403.12 214.624 419.312 248 419.312C305.344 419.312 352 372.656 352 315.312C352 294.752 346 274.864 334.664 257.8L321.336 266.656ZM496 139.312C496 152.544 485.232 163.312 472 163.312C469.152 163.312 466.456 162.728 463.92 161.816L420.456 214.944C422.664 218.56 424 222.768 424 227.312C424 240.544 413.232 251.312 400 251.312C392.872 251.312 386.528 248.128 382.128 243.176L371.016 257.464C372.872 261.376 374.52 265.312 375.952 269.248L432 276.248V354.376L375.952 361.384C374.52 365.312 372.872 369.248 371.016 373.168L405.728 417.8L350.488 473.04L305.856 438.328C301.944 440.184 298.008 441.832 294.064 443.264L287.064 499.312H208.936L201.936 443.264C198 441.832 194.064 440.184 190.144 438.328L145.512 473.04L90.272 417.8L124.984 373.168C123.128 369.256 121.48 365.32 120.048 361.384L64 354.376V276.248L110.32 270.456L41.936 243.104C37.528 248.096 31.16 251.312 24 251.312C10.768 251.312 0 240.544 0 227.312C0 214.08 10.768 203.312 24 203.312C37.232 203.312 48 214.08 48 227.312C48 227.632 47.92 227.936 47.904 228.256L124.4 258.856C124.616 258.392 124.768 257.928 124.984 257.464L90.272 212.832L145.512 157.592L190.144 192.304C194.056 190.448 197.992 188.8 201.936 187.368L208.936 131.312H287.064L294.08 187.464C294.112 187.48 294.144 187.488 294.176 187.504C294.792 187.448 295.376 187.312 296 187.312C300.384 187.312 304.44 188.576 307.984 190.64L350.488 157.584L396.56 203.656C397.696 203.496 398.824 203.312 400 203.312C402.848 203.312 405.544 203.896 408.08 204.808L451.544 151.688C449.344 148.064 448 143.856 448 139.312C448 126.08 458.768 115.312 472 115.312C485.232 115.312 496 126.08 496 139.312ZM32 227.312C32 222.896 28.408 219.312 24 219.312C19.592 219.312 16 222.896 16 227.312C16 231.728 19.592 235.312 24 235.312C28.408 235.312 32 231.728 32 227.312ZM349.16 178.88L318.376 202.824C318.872 204.12 319.288 205.448 319.552 206.84L378.976 215.984C379.816 214.432 380.8 212.992 381.952 211.664L349.16 178.88ZM296 203.312C291.592 203.312 288 206.896 288 211.312C288 215.728 291.592 219.312 296 219.312C300.408 219.312 304 215.728 304 211.312C304 206.896 300.408 203.312 296 203.312ZM140.728 251.64C141.808 251.496 142.88 251.312 144 251.312C157.232 251.312 168 262.08 168 275.312C168 275.528 167.944 275.728 167.936 275.944L184.144 282.176C196.16 259.12 220.248 243.312 248 243.312C255.936 243.312 263.552 244.656 270.696 247.032L279.264 228.464C274.8 224.104 272 218.04 272 211.312C272 204.8 274.624 198.904 278.848 194.576L272.936 147.312H223.064L216.552 199.4L211.672 200.944C205.432 202.92 199.112 205.56 192.888 208.792L188.344 211.152L146.848 178.88L111.576 214.152L140.728 251.64ZM192 315.312C192 346.184 217.12 371.312 248 371.312C278.88 371.312 304 346.184 304 315.312C304 295.672 293.816 278.392 278.464 268.392L264.728 298.16C269.2 302.52 272 308.584 272 315.312C272 328.544 261.232 339.312 248 339.312C234.768 339.312 224 328.544 224 315.312C224 315.096 224.056 314.896 224.064 314.68L193.432 302.896C192.52 306.896 192 311.04 192 315.312ZM240 315.312C240 319.728 243.592 323.312 248 323.312C252.408 323.312 256 319.728 256 315.312C256 310.896 252.408 307.312 248 307.312C243.592 307.312 240 310.896 240 315.312ZM263.952 261.656C258.888 260.152 253.544 259.312 248 259.312C227.056 259.312 208.784 270.888 199.184 287.96L229.872 299.76C234.272 294.632 240.72 291.312 248 291.312C248.744 291.312 249.44 291.464 250.168 291.528L263.952 261.656ZM136 275.312C136 279.728 139.592 283.312 144 283.312C148.408 283.312 152 279.728 152 275.312C152 270.896 148.408 267.312 144 267.312C139.592 267.312 136 270.896 136 275.312ZM352.16 255.648L371.328 231L317.032 222.64C312.968 230.144 305.12 235.312 296 235.312C295.256 235.312 294.56 235.16 293.832 235.096L285.208 253.792C306.016 266.424 320 289.232 320 315.312C320 355.016 287.696 387.312 248 387.312C208.304 387.312 176 355.016 176 315.312C176 309.016 176.896 302.944 178.416 297.12L162.128 290.856C157.728 295.992 151.28 299.312 144 299.312C134.264 299.312 125.904 293.464 122.144 285.112L80 290.376V340.248L132.088 346.752L133.632 351.64C135.608 357.864 138.248 364.176 141.48 370.416L143.84 374.968L111.568 416.464L146.84 451.736L188.336 419.464L192.88 421.824C199.104 425.056 205.424 427.696 211.664 429.672L216.544 431.216L223.064 483.312H272.936L279.448 431.224L284.328 429.68C290.568 427.704 296.888 425.064 303.112 421.832L307.656 419.472L349.152 451.744L384.424 416.472L352.152 374.976L354.512 370.424C357.752 364.192 360.392 357.88 362.36 351.648L363.904 346.76L416 340.248V290.376L363.912 283.872L362.368 278.984C360.392 272.76 357.752 266.448 354.52 260.208L352.16 255.648ZM408 227.312C408 222.896 404.408 219.312 400 219.312C395.592 219.312 392 222.896 392 227.312C392 231.728 395.592 235.312 400 235.312C404.408 235.312 408 231.728 408 227.312ZM480 139.312C480 134.896 476.408 131.312 472 131.312C467.592 131.312 464 134.896 464 139.312C464 143.728 467.592 147.312 472 147.312C476.408 147.312 480 143.728 480 139.312ZM64 83.312H28.688L112 166.624L195.312 83.312H160V3.312H144V99.312H156.688L112 144L67.312 99.312H80V35.312H64V83.312ZM80 3.312H64V19.312H80V3.312ZM432 83.312H467.312L384 0L300.688 83.312H336V147.312H352V67.312H339.312L384 22.624L428.688 67.312H416V115.312H432V83.312ZM416 147.312H432V131.312H416V147.312Z" fill="url(#paint0_linear)"/>
<defs>
<linearGradient id="paint0_linear" x1="248" y1="499.312" x2="248" y2="0" gradientUnits="userSpaceOnUse">
<stop stop-color="#0083CB"/>
<stop offset="1" stop-color="#03587F"/>
</linearGradient>
</defs>
</svg>
