<svg id="Layer_5" enable-background="new 0 0 64 64" height="512" viewBox="0 0 64 64" width="512" xmlns="http://www.w3.org/2000/svg" xmlns:xlink="http://www.w3.org/1999/xlink"><linearGradient id="SVGID_1_" gradientUnits="userSpaceOnUse" x1="32" x2="32" y1="63.001" y2="1"><stop offset="0" stop-color="#9f2fff"/><stop offset="1" stop-color="#0bb1d3"/></linearGradient><path d="m3 45v8h2l-.001 3.939c0 1.596.621 3.095 1.786 4.26 1.162 1.162 2.7 1.802 4.331 1.802h18.891c2.753 0 4.993-2.243 4.993-5.001 0-1.654-1.346-3-3-3h-2.382l-.188-.376c-.501-1.002-1.508-1.624-2.627-1.624-.773 0-1.53.313-2.077.86l-1.14 1.14h-.586v-.716c0-5.609-2.185-10.883-6.15-14.849l-.85-.849v-1.625c1.021-.095 1.973-.518 2.707-1.253.834-.834 1.293-1.942 1.293-3.122v-1.864l3-1v-.721c0-3.068-1.034-5.751-1.974-7.565 1.209-1.099 1.974-2.678 1.974-4.436 0-3.309-2.691-6-6-6h-5c-4.858 0-8.83 3.87-8.995 8.689l-.296.444c-1.118 1.679-1.709 3.631-1.709 5.646 0 2.975 1.296 5.791 3.555 7.728l3.445 2.953v2.63c-2.833.479-5 2.943-5 5.91zm2 0c0-2.206 1.794-4 4-4s4 1.794 4 4v6h-8zm3.162 14.748c-.75-.75-1.163-1.748-1.163-2.809l.001-3.939h4v2.587l-1.707 1.706 1.414 1.414 1.707-1.706 6.586-.001v4.001c-3.546 0-6.698 0-7.884 0-1.096 0-2.133-.432-2.954-1.253zm14.838 1.253c-.665 0-1.333 0-2 0v-4.001h2zm4.641-5.482.741 1.481h3.618c.552 0 1 .448 1 1 0 1.654-1.343 3.001-2.993 3.001-1.371 0-3.122 0-5.007 0v-4.587l1.14-1.14c.427-.427 1.229-.297 1.501.245zm-6.641-1.235v.716l-8 .001v-2.001h2v-8c0-1.31-.427-2.52-1.143-3.508.474-.242.901-.565 1.267-.953l.311.311c3.588 3.588 5.565 8.359 5.565 13.434zm-.021-25.997-2.979.993v3.306c0 .646-.251 1.252-.707 1.708s-1.063.707-1.707.707l-3.586-.001v2l2 .001v1.708c-.39.655-1.042 1.1-1.79 1.231-.661-.421-1.408-.714-2.21-.849v-7.262c0-.801-.313-1.555-.879-2.121l-.828-.828c-.187-.188-.293-.445-.293-.708v-.172c0-.552.448-1 1-1h1v-4c0-.774.453-1.46 1.123-1.79 1.102 1.121 2.615 1.791 4.263 1.791h1.613c.83 0 1.621-.17 2.341-.476.733 1.455 1.501 3.478 1.639 5.762zm-15.123 3.702c-1.815-1.556-2.856-3.82-2.856-6.21 0-1.62.475-3.188 1.373-4.536l.627-.94v-.303c0-3.859 3.141-7 7-7h5c2.206 0 4 1.794 4 4s-1.795 4.001-4.001 4.001h-1.613c-1.646 0-3.104-.987-3.714-2.516l-.743-1.856-1.857.744.743 1.855c.046.115.109.218.161.328-1.192.705-1.976 2.002-1.976 3.444v2.171c-1.164.413-2 1.525-2 2.829v.172c0 .801.312 1.555.879 2.121l.828.828c.187.187.293.444.293.707v1.999zm55.697-6.331-6.764-3.382c-.361-.18-.767-.276-1.171-.276-1.443 0-2.618 1.175-2.618 2.618v2.382h-26v2h26v2.382c0 1.443 1.175 2.618 2.618 2.618.404 0 .81-.096 1.171-.276l6.765-3.382c.891-.447 1.446-1.345 1.446-2.342s-.555-1.895-1.447-2.342zm-.895 2.895-6.764 3.382c-.385.197-.894-.117-.894-.553v-6.764c0-.341.277-.618.618-.618.096 0 .191.022.276.065l6.763 3.382c.212.106.343.318.343.553s-.131.447-.342.553zm-21.658-5.553h-14v2h14c2.757 0 5-2.243 5-5v-7h2.382c1.443 0 2.618-1.175 2.618-2.618 0-.404-.096-.81-.276-1.171l-3.382-6.765c-.447-.891-1.345-1.446-2.342-1.446s-1.895.555-2.342 1.447l-3.382 6.764c-.18.361-.276.767-.276 1.171 0 1.443 1.175 2.618 2.618 2.618h2.382v7c0 1.654-1.346 3-3 3zm0-12.618c0-.096.022-.191.065-.276l3.382-6.763c.106-.212.318-.343.553-.343s.447.131.553.342l3.382 6.764c.043.084.065.18.065.276 0 .341-.277.618-.618.618h-6.764c-.341 0-.618-.277-.618-.618zm0 20.618h-14v2h14c1.654 0 3 1.346 3 3v7h-2.382c-1.443 0-2.618 1.175-2.618 2.618 0 .404.096.81.276 1.171l3.382 6.765c.447.891 1.345 1.446 2.342 1.446s1.895-.555 2.342-1.447l3.382-6.764c.18-.361.276-.767.276-1.171 0-1.443-1.175-2.618-2.618-2.618h-2.382v-7c0-2.757-2.243-5-5-5zm8 14.618c0 .096-.022.191-.065.276l-3.382 6.763c-.211.424-.895.423-1.105.001l-3.382-6.764c-.044-.084-.066-.18-.066-.276 0-.341.277-.618.618-.618h6.764c.341 0 .618.277.618.618z" fill="url(#SVGID_1_)"/></svg>