<svg width="480" height="481" viewBox="0 0 480 481" fill="none" xmlns="http://www.w3.org/2000/svg">
<path d="M480 112.312V80.312C480 78.1902 479.157 76.1554 477.657 74.6551C476.157 73.1548 474.122 72.312 472 72.312H440C438.398 72.3104 436.832 72.79 435.505 73.6886C434.179 74.5872 433.153 75.8635 432.56 77.352L418.56 112.312H414.96L404.32 33.752C402.801 24.3966 397.995 15.8898 390.765 9.7604C383.536 3.63097 374.358 0.280808 364.88 0.311983H115.12C105.603 0.306645 96.3958 3.6948 89.1523 9.86788C81.9089 16.041 77.1037 24.5944 75.6 33.992L65.04 112.312H61.44L47.44 77.352C46.8472 75.8635 45.8211 74.5872 44.4946 73.6886C43.168 72.79 41.6023 72.3104 40 72.312H8.00003C5.8783 72.312 3.84347 73.1548 2.34318 74.6551C0.842888 76.1554 3.3262e-05 78.1902 3.3262e-05 80.312V112.312C-0.00545417 114.216 0.668192 116.059 1.89993 117.511C3.13166 118.963 4.84073 119.927 6.72003 120.232L14.72 121.512C10.1462 125.242 6.45436 129.938 3.90941 135.263C1.36446 140.588 0.029416 146.41 3.3262e-05 152.312V256.312C3.3262e-05 258.434 0.842888 260.469 2.34318 261.969C3.84347 263.469 5.8783 264.312 8.00003 264.312H16V312.312C16.0127 316.552 17.7025 320.614 20.7003 323.612C23.6982 326.61 27.7605 328.299 32 328.312H96C100.24 328.299 104.302 326.61 107.3 323.612C110.298 320.614 111.987 316.552 112 312.312V264.312H192V472.312C192 474.434 192.843 476.469 194.343 477.969C195.843 479.469 197.878 480.312 200 480.312H472C474.122 480.312 476.157 479.469 477.657 477.969C479.157 476.469 480 474.434 480 472.312V152.312C479.971 146.41 478.636 140.588 476.091 135.263C473.546 129.938 469.854 125.242 465.28 121.512L473.28 120.232C475.159 119.927 476.868 118.963 478.1 117.511C479.332 116.059 480.006 114.216 480 112.312ZM91.44 36.392C92.3505 30.774 95.2355 25.6651 99.5763 21.9842C103.917 18.3033 109.429 16.292 115.12 16.312H364.88C370.536 16.2843 376.019 18.2623 380.354 21.8947C384.689 25.527 387.597 30.5786 388.56 36.152L398.88 112.312H299.28L307.28 104.312H376V88.312H304C301.879 88.3278 299.846 89.1584 298.32 90.632L276.72 112.312H147.28L155.28 104.312H224V88.312H152C149.879 88.3278 147.846 89.1584 146.32 90.632L124.72 112.312H81.12L91.44 36.392ZM384 192.312H288V152.312H312C314.122 152.312 316.157 151.469 317.657 149.969C319.157 148.469 320 146.434 320 144.312C320 140.069 321.686 135.999 324.686 132.998C327.687 129.998 331.757 128.312 336 128.312C340.243 128.312 344.313 129.998 347.314 132.998C350.314 135.999 352 140.069 352 144.312C352 146.434 352.843 148.469 354.343 149.969C355.843 151.469 357.878 152.312 360 152.312H384V192.312ZM392 208.312C394.122 208.312 396.157 207.469 397.657 205.969C399.157 204.469 400 202.434 400 200.312H440V440.312H232V200.312H272C272 202.434 272.843 204.469 274.343 205.969C275.843 207.469 277.878 208.312 280 208.312H392ZM16 88.312H34.56L43.28 110.072L16 105.512V88.312ZM16 176.312H32V216.312H16V176.312ZM96 312.312H88V296.312H72V312.312H32V264.312H40V280.312H56V264.312H96V312.312ZM192 248.312H16V232.312H192V248.312ZM48 216.312V176.312H128V216.312H48ZM192 216.312H144V176.312H192V216.312ZM16 160.312V152.312C16.019 145.953 18.5537 139.859 23.0505 135.362C27.5472 130.866 33.6407 128.331 40 128.312H308.4C306.908 130.807 305.777 133.5 305.04 136.312H280C277.878 136.312 275.843 137.155 274.343 138.655C272.843 140.155 272 142.19 272 144.312V160.312H16ZM464 464.312H208V176.312H272V184.312H224C221.878 184.312 219.843 185.155 218.343 186.655C216.843 188.155 216 190.19 216 192.312V448.312C216 450.434 216.843 452.469 218.343 453.969C219.843 455.469 221.878 456.312 224 456.312H448C450.122 456.312 452.157 455.469 453.657 453.969C455.157 452.469 456 450.434 456 448.312V192.312C456 190.19 455.157 188.155 453.657 186.655C452.157 185.155 450.122 184.312 448 184.312H400V176.312H464V464.312ZM464 160.312H400V144.312C400 142.19 399.157 140.155 397.657 138.655C396.157 137.155 394.122 136.312 392 136.312H366.96C366.223 133.5 365.092 130.807 363.6 128.312H440C446.359 128.331 452.453 130.866 456.95 135.362C461.446 139.859 463.981 145.953 464 152.312V160.312ZM464 105.512L436.72 110.072L445.44 88.312H464V105.512Z" fill="url(#paint0_linear)"/>
<path d="M40 288.312H56V304.312H40V288.312Z" fill="url(#paint1_linear)"/>
<path d="M72 272.312H88V288.312H72V272.312Z" fill="url(#paint2_linear)"/>
<path d="M256 280.312H416V296.312H256V280.312Z" fill="url(#paint3_linear)"/>
<path d="M256 320.312H416V336.312H256V320.312Z" fill="url(#paint4_linear)"/>
<path d="M256 360.312H416V376.312H256V360.312Z" fill="url(#paint5_linear)"/>
<path d="M336 400.312H416V416.312H336V400.312Z" fill="url(#paint6_linear)"/>
<path d="M256 240.312H320V256.312H256V240.312Z" fill="url(#paint7_linear)"/>
<defs>
<linearGradient id="paint0_linear" x1="240" y1="0.311768" x2="240" y2="480.312" gradientUnits="userSpaceOnUse">
<stop stop-color="#03587F"/>
<stop offset="1" stop-color="#0083CB"/>
</linearGradient>
<linearGradient id="paint1_linear" x1="48" y1="288.312" x2="48" y2="304.312" gradientUnits="userSpaceOnUse">
<stop stop-color="#03587F"/>
<stop offset="1" stop-color="#0083CB"/>
</linearGradient>
<linearGradient id="paint2_linear" x1="80" y1="272.312" x2="80" y2="288.312" gradientUnits="userSpaceOnUse">
<stop stop-color="#03587F"/>
<stop offset="1" stop-color="#0083CB"/>
</linearGradient>
<linearGradient id="paint3_linear" x1="336" y1="280.312" x2="336" y2="296.312" gradientUnits="userSpaceOnUse">
<stop stop-color="#03587F"/>
<stop offset="1" stop-color="#0083CB"/>
</linearGradient>
<linearGradient id="paint4_linear" x1="336" y1="320.312" x2="336" y2="336.312" gradientUnits="userSpaceOnUse">
<stop stop-color="#03587F"/>
<stop offset="1" stop-color="#0083CB"/>
</linearGradient>
<linearGradient id="paint5_linear" x1="336" y1="360.312" x2="336" y2="376.312" gradientUnits="userSpaceOnUse">
<stop stop-color="#03587F"/>
<stop offset="1" stop-color="#0083CB"/>
</linearGradient>
<linearGradient id="paint6_linear" x1="376" y1="400.312" x2="376" y2="416.312" gradientUnits="userSpaceOnUse">
<stop stop-color="#03587F"/>
<stop offset="1" stop-color="#0083CB"/>
</linearGradient>
<linearGradient id="paint7_linear" x1="288" y1="240.312" x2="288" y2="256.312" gradientUnits="userSpaceOnUse">
<stop stop-color="#03587F"/>
<stop offset="1" stop-color="#0083CB"/>
</linearGradient>
</defs>
</svg>
