<svg width="496" height="497" viewBox="0 0 496 497" fill="none" xmlns="http://www.w3.org/2000/svg">
<path d="M16 352.312V416.312H32L31.992 447.824C31.992 460.592 36.96 472.584 46.28 481.904C55.576 491.2 67.88 496.32 80.928 496.32H232.056C254.08 496.32 272 478.376 272 456.312C272 443.08 261.232 432.312 248 432.312H228.944L227.44 429.304C223.432 421.288 215.376 416.312 206.424 416.312C200.24 416.312 194.184 418.816 189.808 423.192L180.688 432.312H176V426.584C176 381.712 158.52 339.52 126.8 307.792L120 301V288C128.168 287.24 135.784 283.856 141.656 277.976C148.328 271.304 152 262.44 152 253V238.088L176 230.088V224.32C176 199.776 167.728 178.312 160.208 163.8C169.88 155.008 176 142.376 176 128.312C176 101.84 154.472 80.312 128 80.312H88C49.136 80.312 17.36 111.272 16.04 149.824L13.672 153.376C4.728 166.808 0 182.424 0 198.544C0 222.344 10.368 244.872 28.44 260.368L56 283.992V305.032C33.336 308.864 16 328.576 16 352.312ZM32 352.312C32 334.664 46.352 320.312 64 320.312C81.648 320.312 96 334.664 96 352.312V400.312H32V352.312ZM57.296 470.296C51.296 464.296 47.992 456.312 47.992 447.824L48 416.312H80V437.008L66.344 450.656L77.656 461.968L91.312 448.32L144 448.312V480.32C115.632 480.32 90.416 480.32 80.928 480.32C72.16 480.32 63.864 476.864 57.296 470.296ZM176 480.32C170.68 480.32 165.336 480.32 160 480.32V448.312H176V480.32ZM213.128 436.464L219.056 448.312H248C252.416 448.312 256 451.896 256 456.312C256 469.544 245.256 480.32 232.056 480.32C221.088 480.32 207.08 480.32 192 480.32V443.624L201.12 434.504C204.536 431.088 210.952 432.128 213.128 436.464ZM160 426.584V432.312L96 432.32V416.312H112V352.312C112 341.832 108.584 332.152 102.856 324.248C106.648 322.312 110.064 319.728 112.992 316.624L115.48 319.112C144.184 347.816 160 385.984 160 426.584ZM159.832 218.608L136 226.552V253C136 258.168 133.992 263.016 130.344 266.664C126.696 270.312 121.84 272.32 116.688 272.32L88 272.312V288.312L104 288.32V301.984C100.88 307.224 95.664 310.784 89.68 311.832C84.392 308.464 78.416 306.12 72 305.04V246.944C72 240.536 69.496 234.504 64.968 229.976L58.344 223.352C56.848 221.848 56 219.792 56 217.688V216.312C56 211.896 59.584 208.312 64 208.312H72V176.312C72 170.12 75.624 164.632 80.984 161.992C89.8 170.96 101.904 176.32 115.088 176.32H127.992C134.632 176.32 140.96 174.96 146.72 172.512C152.584 184.152 158.728 200.336 159.832 218.608ZM38.848 248.224C24.328 235.776 16 217.664 16 198.544C16 185.584 19.8 173.04 26.984 162.256L32 154.736V152.312C32 121.44 57.128 96.312 88 96.312H128C145.648 96.312 160 110.664 160 128.312C160 145.96 145.64 160.32 127.992 160.32H115.088C101.92 160.32 90.256 152.424 85.376 140.192L79.432 125.344L64.576 131.296L70.52 146.136C70.888 147.056 71.392 147.88 71.808 148.76C62.272 154.4 56 164.776 56 176.312V193.68C46.688 196.984 40 205.88 40 216.312V217.688C40 224.096 42.496 230.128 47.032 234.656L53.656 241.28C55.152 242.776 56 244.832 56 246.936V262.928L38.848 248.224ZM484.424 197.576L430.312 170.52C427.424 169.08 424.176 168.312 420.944 168.312C409.4 168.312 400 177.712 400 189.256V208.312H192V224.312H400V243.368C400 254.912 409.4 264.312 420.944 264.312C424.176 264.312 427.424 263.544 430.312 262.104L484.432 235.048C491.56 231.472 496 224.288 496 216.312C496 208.336 491.56 201.152 484.424 197.576ZM477.264 220.736L423.152 247.792C420.072 249.368 416 246.856 416 243.368V189.256C416 186.528 418.216 184.312 420.944 184.312C421.712 184.312 422.472 184.488 423.152 184.832L477.256 211.888C478.952 212.736 480 214.432 480 216.312C480 218.192 478.952 219.888 477.264 220.736ZM304 176.312H192V192.312H304C326.056 192.312 344 174.368 344 152.312V96.312H363.056C374.6 96.312 384 86.912 384 75.368C384 72.136 383.232 68.888 381.792 66L354.736 11.88C351.16 4.75201 343.976 0.312012 336 0.312012C328.024 0.312012 320.84 4.75201 317.264 11.888L290.208 66C288.768 68.888 288 72.136 288 75.368C288 86.912 297.4 96.312 308.944 96.312H328V152.312C328 165.544 317.232 176.312 304 176.312ZM304 75.368C304 74.6 304.176 73.84 304.52 73.16L331.576 19.056C332.424 17.36 334.12 16.312 336 16.312C337.88 16.312 339.576 17.36 340.424 19.048L367.48 73.16C367.824 73.832 368 74.6 368 75.368C368 78.096 365.784 80.312 363.056 80.312H308.944C306.216 80.312 304 78.096 304 75.368ZM304 240.312H192V256.312H304C317.232 256.312 328 267.08 328 280.312V336.312H308.944C297.4 336.312 288 345.712 288 357.256C288 360.488 288.768 363.736 290.208 366.624L317.264 420.744C320.84 427.872 328.024 432.312 336 432.312C343.976 432.312 351.16 427.872 354.736 420.736L381.792 366.624C383.232 363.736 384 360.488 384 357.256C384 345.712 374.6 336.312 363.056 336.312H344V280.312C344 258.256 326.056 240.312 304 240.312ZM368 357.256C368 358.024 367.824 358.784 367.48 359.464L340.424 413.568C338.736 416.96 333.264 416.952 331.584 413.576L304.528 359.464C304.176 358.792 304 358.024 304 357.256C304 354.528 306.216 352.312 308.944 352.312H363.056C365.784 352.312 368 354.528 368 357.256Z" fill="url(#paint0_linear)"/>
<defs>
<linearGradient id="paint0_linear" x1="248" y1="496.32" x2="248" y2="0.312012" gradientUnits="userSpaceOnUse">
<stop stop-color="#0083CB"/>
<stop offset="1" stop-color="#03587F"/>
</linearGradient>
</defs>
</svg>
