<svg width="496" height="497" viewBox="0 0 496 497" fill="none" xmlns="http://www.w3.org/2000/svg">
<path d="M248 184.312C270.056 184.312 288 166.368 288 144.312V136.312H208V144.312C208 166.368 225.944 184.312 248 184.312ZM270.632 152.312C267.328 161.624 258.432 168.312 248 168.312C237.568 168.312 228.672 161.624 225.368 152.312H270.632ZM24 120.312V128.312C24 145.96 38.352 160.312 56 160.312C73.648 160.312 88 145.96 88 128.312V120.312C88 113.408 92.68 105.208 97.632 96.52C107.104 79.912 118.888 59.248 106.704 33.312C98.368 15.576 81.72 3.10401 63.256 0.776011C47.168 -1.23199 31.032 3.67201 18.976 14.296C6.92 24.928 0 40.24 0 56.312C0 72.176 7.248 83.872 13.648 94.184C19.2 103.144 24 110.888 24 120.312ZM56 144.312C47.176 144.312 40 137.136 40 128.312H72C72 137.136 64.824 144.312 56 144.312ZM48 56.312C48 51.904 51.592 48.312 56 48.312C60.408 48.312 64 51.904 64 56.312C64 60.72 60.408 64.312 56 64.312C51.592 64.312 48 60.72 48 56.312ZM29.56 26.296C36.968 19.768 46.184 16.312 55.952 16.312C57.704 16.312 59.48 16.424 61.264 16.648C74.344 18.296 86.208 27.288 92.232 40.12C100.888 58.536 92.56 73.136 83.744 88.6C79.184 96.592 74.824 104.248 72.96 112.32H64V78.848C73.288 75.536 80 66.736 80 56.32C80 43.088 69.232 32.32 56 32.32C42.768 32.32 32 43.08 32 56.312C32 66.728 38.712 75.528 48 78.84V112.312H39.208C37.344 102.176 32.256 93.84 27.248 85.76C21.464 76.432 16 67.616 16 56.312C16 44.832 20.944 33.896 29.56 26.296ZM48 192.312H0V176.312H48V192.312ZM112 192.312H64V176.312H112V192.312ZM16 208.312H96V224.312H16V208.312ZM32 496.312H480C488.824 496.312 496 489.136 496 480.312V448.312C496 439.488 488.824 432.312 480 432.312H394.52C397.992 425.024 400 416.904 400 408.312V311.576C400 279.768 379.576 252.112 349.168 242.76L343.816 241.112C358.752 229.264 368 210.984 368 191.312C368 174.344 361.392 158.4 349.4 146.4L347.464 144.464C347.608 144.216 347.736 143.96 347.88 143.704C349.2 144.064 350.568 144.312 352 144.312H368V158.424C368 168.288 376.024 176.312 385.888 176.312C392.704 176.312 398.84 172.52 401.888 166.424L412.944 144.312H480C488.824 144.312 496 137.136 496 128.312V48.312C496 39.488 488.824 32.312 480 32.312H352C347.544 32.312 343.52 34.152 340.616 37.096C327.088 15.08 302.856 0.312012 275.168 0.312012H220.832C178.464 0.312012 144 34.776 144 77.144C144 85.416 145.328 93.592 147.944 101.44L150.52 109.168C146.48 114.52 144 121.104 144 128.312C144 145.96 158.352 160.312 176 160.312H179.544C183.584 174.032 190.976 186.608 201.376 197C204.2 199.824 207.264 202.328 210.48 204.56L209.088 208.04C204.584 219.32 195.328 227.84 183.72 231.416L146.832 242.76C130.608 247.752 116.928 258.184 107.736 272.304H16C7.176 272.304 0 279.48 0 288.304V464.304C0 481.96 14.352 496.312 32 496.312ZM16 464.312H144C144 470.168 145.696 475.584 148.448 480.312H32C23.176 480.312 16 473.136 16 464.312ZM176 288.312V448.312H160V288.312H176ZM176 480.312C167.176 480.312 160 473.136 160 464.312H288C288 473.136 280.824 480.312 272 480.312H176ZM224 432.312C224 423.488 231.176 416.312 240 416.312H340.688L354.344 429.968L365.656 418.656L352 405V352.312H384V408.312C384 430.368 366.056 448.312 344 448.312H240C231.176 448.312 224 441.136 224 432.312ZM248 327.312L227.2 288.312H268.8L248 327.312ZM480 480.312H299.552C302.304 475.584 304 470.168 304 464.312H344C359.216 464.312 373.016 458.192 383.112 448.312H480V480.312ZM384 311.576V336.312H352V304.312H336V400.312H256V346.312L308.904 247.112L344.464 258.056C368.112 265.328 384 286.832 384 311.576ZM352 191.312C352 210.24 340.528 227.352 323.304 234.808L312.28 231.416C300.664 227.84 291.416 219.32 286.904 208.04L285.512 204.568C288.728 202.328 291.792 199.824 294.624 197C305.008 186.608 312.4 174.032 316.44 160.328H320C325.92 160.328 331.392 158.608 336.152 155.792L338.088 157.728C347.056 166.68 352 178.616 352 191.312ZM320 135.704V112.312C328.824 112.312 336 119.488 336 128.312C336 137.136 328.824 144.312 320 144.312H319.584C319.856 141.472 320 138.6 320 135.704ZM351.992 48.312H352H480V128.312H403.056L387.584 159.264C386.8 160.832 384 160.176 384 158.424V128.312H352L351.992 77.328C351.992 77.264 352 77.2 352 77.144C352 77.096 351.992 77.048 351.992 76.992V48.312ZM176 144.312C167.176 144.312 160 137.136 160 128.312C160 119.488 167.176 112.312 176 112.312V135.736C176 138.616 176.144 141.48 176.416 144.312H176ZM176 96.312C171.712 96.312 167.64 97.192 163.904 98.72L163.12 96.376C161.048 90.168 160 83.696 160 77.144C160 43.6 187.288 16.312 220.832 16.312H275.168C308.712 16.312 336 43.6 336 77.144C336 83.696 334.952 90.168 332.88 96.376L332.096 98.72C328.36 97.192 324.28 96.312 320 96.312V96.288C320 83.464 315.008 71.416 305.936 62.352C296.88 53.304 284.832 48.312 272.024 48.312C272.008 48.312 272 48.312 272 48.312L224 48.336C197.552 48.352 176.032 69.872 176 96.312ZM192 135.736V96.36C192 78.712 206.352 64.344 224 64.336L272 64.312H272.016C280.552 64.312 288.584 67.64 294.624 73.672C300.672 79.712 304 87.744 304 96.288V135.704C304 154.576 296.656 172.32 283.312 185.672C274.016 194.976 261.144 200.312 248 200.312C234.664 200.312 222.128 195.12 212.696 185.688C199.344 172.344 192 154.608 192 135.736ZM223.944 213.984L224.728 212.032C232.072 214.8 239.912 216.312 248 216.312C256.088 216.312 263.928 214.8 271.28 212.032L272.056 213.976C276.52 225.152 284.352 234.32 294.28 240.544L277.336 272.312H218.672L201.728 240.544C211.648 234.328 219.48 225.152 223.944 213.984ZM151.528 258.064L187.088 247.12L240 346.312V400.312C222.352 400.312 208 414.664 208 432.312C208 438.168 209.696 443.584 212.448 448.312H192V288.312C192 279.488 184.824 272.312 176 272.312H128.12C134.56 265.752 142.544 260.824 151.528 258.064ZM144 288.312V448.312H16V288.312H144ZM416 368.312H432V384.312H416V368.312ZM448 384.312V368.312H464V384.312H448ZM480 384.312V368.312H496V384.312H480ZM496 352.312H416V336.312H496V352.312ZM448 304.312V320.312H416V304.312H448ZM496 320.312H464V304.312H496V320.312ZM464 112.312H368V96.312H464V112.312ZM400 80.312H368V64.312H400V80.312ZM464 80.312H416V64.312H464V80.312Z" fill="url(#paint0_linear)"/>
<defs>
<linearGradient id="paint0_linear" x1="248" y1="496.312" x2="248" y2="0.312012" gradientUnits="userSpaceOnUse">
<stop stop-color="#0083CB"/>
<stop offset="1" stop-color="#03587F"/>
</linearGradient>
</defs>
</svg>
