<svg id="_x33_0" enable-background="new 0 0 64 64" height="512" viewBox="0 0 64 64" width="512" xmlns="http://www.w3.org/2000/svg" xmlns:xlink="http://www.w3.org/1999/xlink"><linearGradient id="SVGID_1_" gradientUnits="userSpaceOnUse" x1="32" x2="32" y1="63" y2="1"><stop offset="0" stop-color="#9f2fff"/><stop offset="1" stop-color="#0bb1d3"/></linearGradient><path d="m32 24c2.757 0 5-2.243 5-5v-1h-10v1c0 2.757 2.243 5 5 5zm2.829-4c-.413 1.164-1.525 2-2.829 2s-2.416-.836-2.829-2zm-30.829-4v1c0 2.206 1.794 4 4 4s4-1.794 4-4v-1c0-.863.585-1.888 1.204-2.974 1.184-2.076 2.657-4.659 1.134-7.901-1.042-2.217-3.123-3.776-5.431-4.067-2.011-.251-4.028.362-5.535 1.69-1.507 1.329-2.372 3.243-2.372 5.252 0 1.983.906 3.445 1.706 4.734.694 1.12 1.294 2.088 1.294 3.266zm4 3c-1.103 0-2-.897-2-2h4c0 1.103-.897 2-2 2zm-1-11c0-.551.449-1 1-1s1 .449 1 1-.449 1-1 1-1-.449-1-1zm-2.305-3.752c.926-.816 2.078-1.248 3.299-1.248.219 0 .441.014.664.042 1.635.206 3.118 1.33 3.871 2.934 1.082 2.302.041 4.127-1.061 6.06-.57.999-1.115 1.956-1.348 2.965h-1.12v-4.184c1.161-.414 2-1.514 2-2.816 0-1.654-1.346-3-3-3s-3 1.345-3 2.999c0 1.302.839 2.402 2 2.816v4.184h-1.099c-.233-1.267-.869-2.309-1.495-3.319-.723-1.166-1.406-2.268-1.406-3.681 0-1.435.618-2.802 1.695-3.752zm2.305 20.752h-6v-2h6zm8 0h-6v-2h6zm-12 2h10v2h-10zm2 36h56c1.103 0 2-.897 2-2v-4c0-1.103-.897-2-2-2h-10.685c.434-.911.685-1.926.685-3v-12.092c0-3.976-2.553-7.433-6.354-8.602l-.669-.206c1.867-1.481 3.023-3.766 3.023-6.225 0-2.121-.826-4.114-2.325-5.614l-.242-.242c.018-.031.034-.063.052-.095.165.045.336.076.515.076h2v1.764c0 1.233 1.003 2.236 2.236 2.236.852 0 1.619-.474 2-1.236l1.382-2.764h8.382c1.103 0 2-.897 2-2v-10c0-1.103-.897-2-2-2h-16c-.557 0-1.06.23-1.423.598-1.691-2.752-4.72-4.598-8.181-4.598h-6.792c-5.296 0-9.604 4.308-9.604 9.604 0 1.034.166 2.056.493 3.037l.322.966c-.505.669-.815 1.492-.815 2.393 0 2.206 1.794 4 4 4h.443c.505 1.715 1.429 3.287 2.729 4.586.353.353.736.666 1.138.945l-.174.435c-.563 1.41-1.72 2.475-3.171 2.922l-4.611 1.418c-2.028.624-3.738 1.928-4.887 3.693h-11.467c-1.103 0-2 .897-2 2v22c0 2.207 1.794 4.001 4 4.001zm-2-4h16c0 .732.212 1.409.556 2h-14.556c-1.103 0-2-.897-2-2zm20-22v20h-2v-20zm0 24c-1.103 0-2-.897-2-2h16c0 1.103-.897 2-2 2zm6-6c0-1.103.897-2 2-2h12.586l1.707 1.707 1.414-1.414-1.707-1.707v-6.586h4v7c0 2.757-2.243 5-5 5h-13c-1.103 0-2-.897-2-2zm3-13.125-2.6-4.875h5.2zm29 19.125h-22.556c.344-.591.556-1.268.556-2h5c1.902 0 3.627-.765 4.889-2h12.111zm-12-21.092v3.092h-4v-4h-2v12h-10v-6.75l6.613-12.4 4.445 1.368c2.956.909 4.942 3.597 4.942 6.69zm-4-15.033c0 2.366-1.434 4.505-3.587 5.437l-1.378-.424c-1.452-.447-2.608-1.512-3.172-2.922l-.174-.434c.402-.28.785-.593 1.139-.946 1.298-1.299 2.222-2.871 2.727-4.584h.445c.74 0 1.424-.215 2.019-.567l.242.242c1.121 1.119 1.739 2.611 1.739 4.198zm-4-6.951v-2.924c1.103 0 2 .897 2 2s-.897 2-2 2h-.052c.034-.355.052-.714.052-1.076zm3.999-10.924h.001 16v10h-9.618l-1.934 3.869c-.098.196-.448.114-.448-.105v-3.764h-4l-.001-6.373c0-.008.001-.016.001-.023 0-.006-.001-.012-.001-.019zm-21.999 12c-1.103 0-2-.897-2-2s.897-2 2-2v2.928c0 .36.018.718.052 1.072zm0-6c-.536 0-1.045.11-1.512.301l-.098-.293c-.259-.776-.39-1.585-.39-2.404 0-4.193 3.411-7.604 7.604-7.604h6.792c4.193 0 7.604 3.411 7.604 7.604 0 .819-.131 1.628-.39 2.404l-.098.293c-.467-.191-.977-.301-1.512-.301v-.003c0-1.603-.624-3.109-1.758-4.242-1.132-1.131-2.638-1.755-4.239-1.755-.002 0-.003 0-.003 0l-6 .003c-3.306.002-5.996 2.692-6 5.997zm2 4.928v-4.922c0-2.206 1.794-4.002 4-4.003l6-.003h.002c1.067 0 2.071.416 2.826 1.17.756.755 1.172 1.759 1.172 2.827v4.927c0 2.359-.918 4.577-2.586 6.246-1.162 1.163-2.771 1.83-4.414 1.83-1.667 0-3.234-.649-4.413-1.828-1.669-1.668-2.587-3.885-2.587-6.244zm3.993 9.781.098-.244c.918.346 1.898.535 2.909.535s1.991-.189 2.91-.535l.097.243c.558 1.397 1.537 2.543 2.778 3.321l-2.118 3.971h-7.333l-2.118-3.971c1.24-.777 2.219-1.924 2.777-3.32zm-9.052 5.51 4.445-1.368 6.614 12.399v6.75c-2.206 0-4 1.794-4 4 0 .732.212 1.409.556 2h-2.556v-20c0-1.103-.897-2-2-2h-5.985c.805-.82 1.803-1.436 2.926-1.781zm-.941 3.781v20h-16v-20zm34 10h2v2h-2zm4 2v-2h2v2zm4 0v-2h2v2zm2-4h-10v-2h10zm-6-6v2h-4v-2zm6 2h-4v-2h4zm-4-26h-12v-2h12zm-8-4h-4v-2h4zm8 0h-6v-2h6z" fill="url(#SVGID_1_)"/></svg>