<svg height="512" viewBox="0 0 64 64" width="512" xmlns="http://www.w3.org/2000/svg" xmlns:xlink="http://www.w3.org/1999/xlink"><linearGradient id="gradient_ice" gradientUnits="userSpaceOnUse" x1="-.529" x2="69.555" y1="65.386" y2="3.151"><stop offset="0" stop-color="#fff200"/><stop offset="1" stop-color="#cd118c"/></linearGradient><linearGradient id="gradient_ice-2" x1="-9.869" x2="60.215" xlink:href="#gradient_ice" y1="54.868" y2="-7.367"/><linearGradient id="gradient_ice-3" x1="-9.098" x2="60.986" xlink:href="#gradient_ice" y1="55.735" y2="-6.499"/><linearGradient id="gradient_ice-4" x1="5.507" x2="75.591" xlink:href="#gradient_ice" y1="72.182" y2="9.947"/><linearGradient id="gradient_ice-5" x1="7.989" x2="78.073" xlink:href="#gradient_ice" y1="74.978" y2="12.743"/><linearGradient id="gradient_ice-6" x1="10.471" x2="80.556" xlink:href="#gradient_ice" y1="77.773" y2="15.539"/><linearGradient id="gradient_ice-7" x1="15.158" x2="85.243" xlink:href="#gradient_ice" y1="83.051" y2="20.817"/><linearGradient id="gradient_ice-8" x1=".379" x2="70.463" xlink:href="#gradient_ice" y1="66.408" y2="4.173"/><g id="Clipboard-file-document-car-service"><path d="m62 16v-4a1 1 0 0 0 -1-1h-4a1 1 0 0 0 -.93.63l-1.75 4.37h-.45l-1.33-9.82a4.978 4.978 0 0 0 -4.93-4.18h-31.22a5 5 0 0 0 -4.94 4.21l-1.32 9.79h-.45l-1.75-4.37a1 1 0 0 0 -.93-.63h-4a1 1 0 0 0 -1 1v4a1 1 0 0 0 .84.99l1 .16a5 5 0 0 0 -1.84 3.85v13a1 1 0 0 0 1 1h1v6a2.006 2.006 0 0 0 2 2h8a2.006 2.006 0 0 0 2-2v-6h10v26a1 1 0 0 0 1 1h34a1 1 0 0 0 1-1v-40a5 5 0 0 0 -1.84-3.85l1-.16a1 1 0 0 0 .84-.99zm-48.57-9.49a2.988 2.988 0 0 1 2.96-2.51h31.22a2.989 2.989 0 0 1 2.96 2.48l1.29 9.52h-12.45l1-1h8.59v-2h-9a1.033 1.033 0 0 0 -.71.29l-2.7 2.71h-16.18l1-1h8.59v-2h-9a1.033 1.033 0 0 0 -.71.29l-2.7 2.71h-5.45zm36.57 19.49h-12v-5h3a1 1 0 0 0 1-1 2 2 0 0 1 4 0 1 1 0 0 0 1 1h3zm1 2a1 1 0 0 0 1-1h5v30h-26v-30h5a1 1 0 0 0 1 1zm-47-15h2.32l1.09 2.72-3.41-.57zm0 11h2v5h-2zm10 17h-1v-2h-2v2h-5v-6h1v2h2v-2h5zm12-8h-22v-2h22zm-18-4v-5h10v5zm18 0h-6v-5h6zm-22-7v-1a3.009 3.009 0 0 1 3-3h33.55a3.851 3.851 0 0 0 -.42 1h-3.13a1 1 0 0 0 -1 1v2zm56 38h-32v-36h8v1h-6a1 1 0 0 0 -1 1v32a1 1 0 0 0 1 1h28a1 1 0 0 0 1-1v-32a1 1 0 0 0 -1-1h-6v-1h8zm0-38h-8v-2a1 1 0 0 0 -1-1h-3.13a3.851 3.851 0 0 0 -.42-1h9.55a3.009 3.009 0 0 1 3 3zm0-6.85-3.41.57 1.09-2.72h2.32z" fill="url(#gradient_ice)"/><path d="m7 38h2v2h-2z" fill="url(#gradient_ice-2)"/><path d="m11 36h2v2h-2z" fill="url(#gradient_ice-3)"/><path d="m34 37h20v2h-20z" fill="url(#gradient_ice-4)"/><path d="m34 42h20v2h-20z" fill="url(#gradient_ice-5)"/><path d="m34 47h20v2h-20z" fill="url(#gradient_ice-6)"/><path d="m44 52h10v2h-10z" fill="url(#gradient_ice-7)"/><path d="m34 32h8v2h-8z" fill="url(#gradient_ice-8)"/></g></svg>